# xmcd
#
# Track frame offsets:
#	150
#	14934
#	29362
#	44627
#	57666
#	71651
#	86183
#	98657
#	113087
#	127042
#	140735
#	152520
#	170303
#	183748
#	197316
#	212377
#	225949
#	239076
#	252585
#	266590
#	278203
#	291084
#	305616
#	320775
#
# Disc length: 4473 seconds
#
# Revision: 2
# Processed by: cddbd v1.5.2PL0 Copyright (c) Steve Scherf et al.
# Submitted via: audiograbber 1.83.01
#
DISCID=73117718
DTITLE=SagaBlues 11 - The Songsters Tradition - Before the Blues
DYEAR=2004
DGENRE=Blues
TTITLE0=Mississippi John Hurt - Spike Driver's Blues
TTITLE1=Dick Justice - Cocaine
TTITLE2=Frank Hutchisson - Cannon Ball
TTITLE3=Gus Cannon - Poor Boy, a Long Way from Home
TTITLE4=Furry Lewis - Casey Jones
TTITLE5=Luke Jordan - Pick Poor Robin Clean
TTITLE6=Henry Thomas - John Henry
TTITLE7=Lead Belly - Pick a Bale of Cotton
TTITLE8=Hobart Smith - ailroad Bill
TTITLE9=Papa Harvey Hull - The France Blues
TTITLE10=Long Cleve Reed - Original Stackolee
TTITLE11=Richard "Rabbit" Brown - Sinking of the Titanic
TTITLE12=Jack Kelly - Doctor Medicine
TTITLE13=Andrew and Jim Baxter - The Moore Girl
TTITLE14=Peg Leg Howell - Beaver Slide Rag
TTITLE15=Alabama Sheiks - Travellin' Railroad Man
TTITLE16=Joe Evans and Arthur McClain - Two White Horses in a Line
TTITLE17=Frank Stokes - Chicken You Can Roost Behind the Moon
TTITLE18=De Ford Bailey - Dixie Flyer Blues
TTITLE19=Taylor's Kentucky Boys - Sourwood Mountain
TTITLE20=Bo Carter - Beans
TTITLE21=Pink Anderson and Simmie Dooley - Gonna Trip Out Tonight
TTITLE22=Freeman Stowers - Railroad Blues
TTITLE23=Tom Darby and Jimmie Tarlton - Frankie and Johnnie
EXTD=YEAR: 2004
EXTT0=
EXTT1=
EXTT2=
EXTT3=
EXTT4=
EXTT5=
EXTT6=
EXTT7=
EXTT8=
EXTT9=
EXTT10=
EXTT11=
EXTT12=
EXTT13=
EXTT14=
EXTT15=
EXTT16=
EXTT17=
EXTT18=
EXTT19=
EXTT20=
EXTT21=
EXTT22=
EXTT23=
PLAYORDER=
